<svg width="429" height="88" viewBox="0 0 429 88" fill="none" xmlns="http://www.w3.org/2000/svg">
<g filter="url(#filter0_d_11_22)">
<path d="M121.909 76.6519L400.909 74C400.118 75.5912 395.923 78.9857 385.475 79.8343C375.027 80.6829 205.411 78.0663 121.909 76.6519Z" fill="url(#paint0_linear_11_22)"/>
<path d="M177.659 31.75H167.841C167.826 30.4621 167.614 29.3106 167.205 28.2955C166.795 27.2803 166.212 26.4167 165.455 25.7045C164.712 24.9924 163.818 24.4545 162.773 24.0909C161.727 23.7121 160.553 23.5227 159.25 23.5227C156.78 23.5227 154.538 24.1439 152.523 25.3864C150.508 26.6136 148.826 28.3939 147.477 30.7273C146.144 33.0606 145.258 35.8788 144.818 39.1818C144.394 42.4394 144.515 45.1591 145.182 47.3409C145.864 49.5227 146.985 51.1667 148.545 52.2727C150.106 53.3788 152.023 53.9318 154.295 53.9318C155.689 53.9318 157 53.7576 158.227 53.4091C159.455 53.0606 160.568 52.5455 161.568 51.8636C162.583 51.1818 163.462 50.3561 164.205 49.3864C164.947 48.4167 165.515 47.3182 165.909 46.0909H175.818C175.258 48.2273 174.348 50.2879 173.091 52.2727C171.848 54.2576 170.28 56.0303 168.386 57.5909C166.508 59.1364 164.348 60.3636 161.909 61.2727C159.485 62.1818 156.803 62.6364 153.864 62.6364C149.651 62.6364 146.008 61.6742 142.932 59.75C139.856 57.8258 137.598 55.0455 136.159 51.4091C134.72 47.7727 134.333 43.3939 135 38.2727C135.667 33.2576 137.159 29.0076 139.477 25.5227C141.811 22.0227 144.697 19.3636 148.136 17.5455C151.591 15.7273 155.326 14.8182 159.341 14.8182C162.098 14.8182 164.606 15.197 166.864 15.9545C169.121 16.7121 171.061 17.8182 172.682 19.2727C174.303 20.7121 175.545 22.4773 176.409 24.5682C177.288 26.6591 177.705 29.053 177.659 31.75ZM196.375 62.6818C192.814 62.6818 189.845 61.9242 187.466 60.4091C185.087 58.8939 183.375 56.7803 182.33 54.0682C181.299 51.3409 181.026 48.1667 181.511 44.5455C181.981 40.9697 183.08 37.8409 184.807 35.1591C186.534 32.4621 188.769 30.3712 191.511 28.8864C194.269 27.3864 197.413 26.6364 200.943 26.6364C204.489 26.6364 207.451 27.3939 209.83 28.9091C212.208 30.4242 213.913 32.5455 214.943 35.2727C215.989 38 216.276 41.1742 215.807 44.7955C215.337 48.3561 214.231 51.4848 212.489 54.1818C210.746 56.8636 208.504 58.9545 205.761 60.4545C203.019 61.9394 199.89 62.6818 196.375 62.6818ZM197.148 55.1818C198.784 55.1818 200.216 54.7197 201.443 53.7955C202.67 52.8712 203.67 51.6061 204.443 50C205.231 48.3788 205.761 46.5455 206.034 44.5C206.292 42.4848 206.246 40.6894 205.898 39.1136C205.564 37.5379 204.92 36.2955 203.966 35.3864C203.026 34.4773 201.761 34.0227 200.17 34.0227C198.534 34.0227 197.095 34.4924 195.852 35.4318C194.625 36.3561 193.617 37.6288 192.83 39.25C192.057 40.8561 191.542 42.6818 191.284 44.7273C191.026 46.7424 191.057 48.5379 191.375 50.1136C191.708 51.6742 192.352 52.9091 193.307 53.8182C194.276 54.7273 195.557 55.1818 197.148 55.1818ZM235.693 15.4545L229.511 62H219.83L226.011 15.4545H235.693ZM253.131 15.4545L246.949 62H237.267L243.449 15.4545H253.131ZM270.523 62.6818C266.947 62.6818 263.962 61.9545 261.568 60.5C259.174 59.0303 257.455 56.9545 256.409 54.2727C255.379 51.5758 255.114 48.3864 255.614 44.7045C256.098 41.1136 257.212 37.9621 258.955 35.25C260.712 32.5379 262.962 30.4242 265.705 28.9091C268.447 27.3939 271.523 26.6364 274.932 26.6364C277.25 26.6364 279.356 27.0076 281.25 27.75C283.144 28.4773 284.735 29.5833 286.023 31.0682C287.326 32.5379 288.242 34.3788 288.773 36.5909C289.303 38.803 289.371 41.3939 288.977 44.3636L288.659 47.0227H259.182L259.932 41.0227H280.295C280.477 39.6288 280.341 38.3939 279.886 37.3182C279.447 36.2424 278.735 35.4015 277.75 34.7955C276.78 34.1742 275.591 33.8636 274.182 33.8636C272.758 33.8636 271.432 34.2121 270.205 34.9091C268.992 35.5909 267.985 36.5 267.182 37.6364C266.379 38.7576 265.879 39.9848 265.682 41.3182L264.818 47.2273C264.591 49.0455 264.712 50.5682 265.182 51.7955C265.667 53.0076 266.455 53.9242 267.545 54.5455C268.636 55.1515 270 55.4545 271.636 55.4545C272.727 55.4545 273.735 55.303 274.659 55C275.598 54.697 276.424 54.25 277.136 53.6591C277.864 53.053 278.455 52.303 278.909 51.4091L287.773 52C287.015 54.1515 285.833 56.0303 284.227 57.6364C282.621 59.2273 280.659 60.4697 278.341 61.3636C276.023 62.2424 273.417 62.6818 270.523 62.6818ZM308.636 62.6818C305.061 62.6818 302.091 61.9242 299.727 60.4091C297.364 58.8788 295.674 56.7576 294.659 54.0455C293.659 51.3333 293.394 48.2121 293.864 44.6818C294.318 41.1061 295.417 37.9697 297.159 35.2727C298.917 32.5606 301.182 30.447 303.955 28.9318C306.727 27.4015 309.879 26.6364 313.409 26.6364C316.439 26.6364 319.023 27.1894 321.159 28.2955C323.311 29.4015 324.917 30.9545 325.977 32.9545C327.038 34.9545 327.455 37.303 327.227 40H318.091C318.061 38.2727 317.568 36.8712 316.614 35.7955C315.674 34.7197 314.318 34.1818 312.545 34.1818C311.045 34.1818 309.674 34.5909 308.432 35.4091C307.205 36.2121 306.174 37.3864 305.341 38.9318C304.523 40.4773 303.977 42.3485 303.705 44.5455C303.417 46.7727 303.47 48.6667 303.864 50.2273C304.273 51.7879 304.977 52.9773 305.977 53.7955C306.992 54.6136 308.25 55.0227 309.75 55.0227C310.871 55.0227 311.901 54.7955 312.841 54.3409C313.795 53.8864 314.621 53.2273 315.318 52.3636C316.015 51.4848 316.545 50.4318 316.909 49.2045H326.023C325.508 51.8712 324.462 54.2197 322.886 56.25C321.326 58.2652 319.333 59.8409 316.909 60.9773C314.5 62.1136 311.742 62.6818 308.636 62.6818ZM353.744 27.0909L352.767 34.3636H331.722L332.699 27.0909H353.744ZM338.562 18.7273H348.244L343.926 51.2727C343.805 52.1667 343.85 52.8636 344.062 53.3636C344.275 53.8485 344.615 54.1894 345.085 54.3864C345.555 54.5833 346.108 54.6818 346.744 54.6818C347.214 54.6818 347.676 54.6439 348.131 54.5682C348.6 54.4773 348.964 54.4091 349.222 54.3636L349.812 61.5682C349.282 61.7348 348.562 61.9167 347.653 62.1136C346.744 62.3106 345.661 62.4318 344.403 62.4773C342.04 62.5682 340.025 62.2576 338.358 61.5455C336.706 60.8182 335.502 59.7045 334.744 58.2045C333.987 56.7045 333.775 54.8182 334.108 52.5455L338.562 18.7273ZM370.812 62.6818C367.252 62.6818 364.282 61.9242 361.903 60.4091C359.525 58.8939 357.812 56.7803 356.767 54.0682C355.737 51.3409 355.464 48.1667 355.949 44.5455C356.419 40.9697 357.517 37.8409 359.244 35.1591C360.972 32.4621 363.206 30.3712 365.949 28.8864C368.706 27.3864 371.85 26.6364 375.381 26.6364C378.926 26.6364 381.888 27.3939 384.267 28.9091C386.646 30.4242 388.35 32.5455 389.381 35.2727C390.426 38 390.714 41.1742 390.244 44.7955C389.775 48.3561 388.669 51.4848 386.926 54.1818C385.184 56.8636 382.941 58.9545 380.199 60.4545C377.456 61.9394 374.328 62.6818 370.812 62.6818ZM371.585 55.1818C373.222 55.1818 374.653 54.7197 375.881 53.7955C377.108 52.8712 378.108 51.6061 378.881 50C379.669 48.3788 380.199 46.5455 380.472 44.5C380.729 42.4848 380.684 40.6894 380.335 39.1136C380.002 37.5379 379.358 36.2955 378.403 35.3864C377.464 34.4773 376.199 34.0227 374.608 34.0227C372.972 34.0227 371.532 34.4924 370.29 35.4318C369.062 36.3561 368.055 37.6288 367.267 39.25C366.494 40.8561 365.979 42.6818 365.722 44.7273C365.464 46.7424 365.494 48.5379 365.812 50.1136C366.146 51.6742 366.79 52.9091 367.744 53.8182C368.714 54.7273 369.994 55.1818 371.585 55.1818ZM394.267 62L398.926 27.0909H408.312L407.494 33.1818H407.858C408.767 31.0152 410.047 29.3788 411.699 28.2727C413.365 27.1515 415.176 26.5909 417.131 26.5909C417.615 26.5909 418.123 26.6212 418.653 26.6818C419.199 26.7273 419.684 26.803 420.108 26.9091L418.949 35.5227C418.525 35.3712 417.919 35.25 417.131 35.1591C416.343 35.053 415.6 35 414.903 35C413.494 35 412.191 35.3106 410.994 35.9318C409.812 36.5379 408.828 37.3864 408.04 38.4773C407.252 39.5682 406.752 40.8258 406.54 42.25L403.949 62H394.267Z" fill="#ECEEED"/>
<path d="M51.6591 31.75H41.8409C41.8257 30.4621 41.6136 29.3106 41.2045 28.2955C40.7954 27.2803 40.2121 26.4167 39.4545 25.7045C38.7121 24.9924 37.8182 24.4545 36.7727 24.0909C35.7272 23.7121 34.553 23.5227 33.25 23.5227C30.7803 23.5227 28.5378 24.1439 26.5227 25.3864C24.5075 26.6136 22.8257 28.3939 21.4772 30.7273C20.1439 33.0606 19.2575 35.8788 18.8181 39.1818C18.3939 42.4394 18.5151 45.1591 19.1818 47.3409C19.8636 49.5227 20.9848 51.1667 22.5454 52.2727C24.106 53.3788 26.0227 53.9318 28.2954 53.9318C29.6894 53.9318 31 53.7576 32.2272 53.4091C33.4545 53.0606 34.5681 52.5455 35.5681 51.8636C36.5833 51.1818 37.4621 50.3561 38.2045 49.3864C38.9469 48.4167 39.5151 47.3182 39.9091 46.0909H49.8181C49.2575 48.2273 48.3485 50.2879 47.0909 52.2727C45.8485 54.2576 44.2803 56.0303 42.3863 57.5909C40.5075 59.1364 38.3485 60.3636 35.9091 61.2727C33.4848 62.1818 30.803 62.6364 27.8636 62.6364C23.6515 62.6364 20.0075 61.6742 16.9318 59.75C13.856 57.8258 11.5985 55.0455 10.1591 51.4091C8.71966 47.7727 8.3333 43.3939 8.99997 38.2727C9.66663 33.2576 11.1591 29.0076 13.4772 25.5227C15.8106 22.0227 18.6969 19.3636 22.1363 17.5455C25.5909 15.7273 29.3257 14.8182 33.3409 14.8182C36.0985 14.8182 38.606 15.197 40.8636 15.9545C43.1212 16.7121 45.0606 17.8182 46.6818 19.2727C48.303 20.7121 49.5454 22.4773 50.4091 24.5682C51.2878 26.6591 51.7045 29.053 51.6591 31.75ZM64.4431 62.6591C62.231 62.6591 60.3068 62.2727 58.6704 61.5C57.0341 60.7121 55.8068 59.553 54.9886 58.0227C54.1856 56.4773 53.9431 54.553 54.2613 52.25C54.5189 50.3106 55.0871 48.6894 55.9659 47.3864C56.8598 46.0682 57.9659 45.0076 59.2841 44.2045C60.6174 43.4015 62.0947 42.7879 63.7159 42.3636C65.3522 41.9394 67.0416 41.6515 68.7841 41.5C70.8295 41.2879 72.481 41.0909 73.7386 40.9091C75.0113 40.7121 75.9583 40.4242 76.5795 40.0455C77.2007 39.6667 77.5644 39.1061 77.6704 38.3636V38.2273C77.8522 36.803 77.5492 35.697 76.7613 34.9091C75.9886 34.1061 74.7841 33.7045 73.1477 33.7045C71.4204 33.7045 69.9735 34.0833 68.8068 34.8409C67.6401 35.5985 66.8144 36.5606 66.3295 37.7273L57.4886 37C58.2159 34.8788 59.3447 33.0455 60.875 31.5C62.4204 29.9394 64.3068 28.7424 66.5341 27.9091C68.7765 27.0606 71.2916 26.6364 74.0795 26.6364C76.0341 26.6364 77.8598 26.8636 79.5568 27.3182C81.2689 27.7727 82.7538 28.4773 84.0113 29.4318C85.2841 30.3864 86.2235 31.6136 86.8295 33.1136C87.4356 34.5985 87.6022 36.3788 87.3295 38.4545L84.1704 62H74.9886L75.6477 57.1591H75.375C74.678 58.25 73.8068 59.2121 72.7613 60.0455C71.7159 60.8636 70.4962 61.5076 69.1022 61.9773C67.7235 62.4318 66.1704 62.6591 64.4431 62.6591ZM68.125 55.9773C69.5341 55.9773 70.8219 55.697 71.9886 55.1364C73.1553 54.5606 74.1098 53.7879 74.8522 52.8182C75.6098 51.8485 76.0719 50.75 76.2386 49.5227L76.7159 45.8182C76.4128 46.0152 75.981 46.1894 75.4204 46.3409C74.8598 46.4924 74.2462 46.6364 73.5795 46.7727C72.928 46.8939 72.2689 47.0076 71.6022 47.1136C70.9507 47.2045 70.3598 47.2955 69.8295 47.3864C68.6628 47.553 67.625 47.8182 66.7159 48.1818C65.8219 48.5455 65.0947 49.0379 64.5341 49.6591C63.9735 50.2652 63.6401 51.0227 63.5341 51.9318C63.3674 53.25 63.7083 54.2576 64.5568 54.9545C65.4204 55.6364 66.6098 55.9773 68.125 55.9773ZM90 75.0909L96.4318 27.0909H105.977L105.205 32.9545H105.636C106.182 32.0152 106.917 31.0606 107.841 30.0909C108.78 29.1061 109.955 28.2879 111.364 27.6364C112.773 26.9697 114.455 26.6364 116.409 26.6364C118.97 26.6364 121.227 27.303 123.182 28.6364C125.136 29.9545 126.583 31.947 127.523 34.6136C128.462 37.2652 128.674 40.5909 128.159 44.5909C127.644 48.4848 126.576 51.7727 124.955 54.4545C123.333 57.1212 121.364 59.1439 119.045 60.5227C116.727 61.8864 114.242 62.5682 111.591 62.5682C109.712 62.5682 108.159 62.2576 106.932 61.6364C105.705 61.0152 104.742 60.2348 104.045 59.2955C103.348 58.3409 102.841 57.3788 102.523 56.4091H102.182L99.7045 75.0909H90ZM103.591 44.5455C103.318 46.6212 103.364 48.4318 103.727 49.9773C104.091 51.5227 104.765 52.7273 105.75 53.5909C106.735 54.4394 108.008 54.8636 109.568 54.8636C111.144 54.8636 112.53 54.4318 113.727 53.5682C114.924 52.6894 115.909 51.4773 116.682 49.9318C117.455 48.3712 117.977 46.5758 118.25 44.5455C118.508 42.5303 118.455 40.7576 118.091 39.2273C117.742 37.697 117.083 36.5 116.114 35.6364C115.144 34.7727 113.864 34.3409 112.273 34.3409C110.697 34.3409 109.303 34.7576 108.091 35.5909C106.894 36.4242 105.909 37.6061 105.136 39.1364C104.364 40.6667 103.848 42.4697 103.591 44.5455Z" fill="url(#paint1_linear_11_22)"/>
</g>
<defs>
<filter id="filter0_d_11_22" x="0" y="6.81824" width="428.108" height="81.1818" filterUnits="userSpaceOnUse" color-interpolation-filters="sRGB">
<feFlood flood-opacity="0" result="BackgroundImageFix"/>
<feColorMatrix in="SourceAlpha" type="matrix" values="0 0 0 0 0 0 0 0 0 0 0 0 0 0 0 0 0 0 127 0" result="hardAlpha"/>
<feOffset/>
<feGaussianBlur stdDeviation="4"/>
<feComposite in2="hardAlpha" operator="out"/>
<feColorMatrix type="matrix" values="0 0 0 0 0.0627451 0 0 0 0 0.0705882 0 0 0 0 0.0666667 0 0 0 1 0"/>
<feBlend mode="normal" in2="BackgroundImageFix" result="effect1_dropShadow_11_22"/>
<feBlend mode="normal" in="SourceGraphic" in2="effect1_dropShadow_11_22" result="shape"/>
</filter>
<linearGradient id="paint0_linear_11_22" x1="121.909" y1="77" x2="400.909" y2="77" gradientUnits="userSpaceOnUse">
<stop stop-color="#00A851" stop-opacity="0.160784"/>
<stop offset="1" stop-color="#007152" stop-opacity="0.87451"/>
</linearGradient>
<linearGradient id="paint1_linear_11_22" x1="67.9091" y1="4" x2="73.909" y2="77" gradientUnits="userSpaceOnUse">
<stop stop-color="#00A851" stop-opacity="0.160784"/>
<stop offset="1" stop-color="#007152" stop-opacity="0.87451"/>
</linearGradient>
</defs>
</svg>
